<svg width="93" height="100" viewBox="0 0 93 100" fill="none" xmlns="http://www.w3.org/2000/svg">
<g filter="url(#filter0_d_763_1061)">
<path d="M65.4626 31.5377L31.2209 65.7793C29.9376 67.0627 27.7792 66.8877 26.7292 65.371C23.1126 60.0918 20.9834 53.8502 20.9834 47.4335V34.6293C20.9834 32.2377 22.7917 29.5252 25.0084 28.621L41.2542 21.971C44.9292 20.4543 49.0126 20.4543 52.6876 21.971L64.5001 26.7835C66.4251 27.571 66.9209 30.0793 65.4626 31.5377Z" fill="white"/>
</g>
<g filter="url(#filter1_d_763_1061)">
<path d="M68.2043 35.5337C70.1002 33.9296 72.9877 35.3004 72.9877 37.7796V47.4337C72.9877 61.6962 62.6335 75.0546 48.4877 78.9629C47.5252 79.2254 46.4752 79.2254 45.4835 78.9629C41.3418 77.7962 37.4918 75.8421 34.196 73.2754C32.796 72.1962 32.6502 70.1546 33.8752 68.9004C40.2335 62.3962 58.8418 43.4379 68.2043 35.5337Z" fill="white"/>
</g>
<defs>
<filter id="filter0_d_763_1061" x="0.983398" y="0.833496" width="85.3252" height="85.8032" filterUnits="userSpaceOnUse" color-interpolation-filters="sRGB">
<feFlood flood-opacity="0" result="BackgroundImageFix"/>
<feColorMatrix in="SourceAlpha" type="matrix" values="0 0 0 0 0 0 0 0 0 0 0 0 0 0 0 0 0 0 127 0" result="hardAlpha"/>
<feOffset/>
<feGaussianBlur stdDeviation="10"/>
<feComposite in2="hardAlpha" operator="out"/>
<feColorMatrix type="matrix" values="0 0 0 0 1 0 0 0 0 1 0 0 0 0 1 0 0 0 0.46 0"/>
<feBlend mode="normal" in2="BackgroundImageFix" result="effect1_dropShadow_763_1061"/>
<feBlend mode="normal" in="SourceGraphic" in2="effect1_dropShadow_763_1061" result="shape"/>
</filter>
<filter id="filter1_d_763_1061" x="13.0435" y="14.8428" width="79.9443" height="84.3169" filterUnits="userSpaceOnUse" color-interpolation-filters="sRGB">
<feFlood flood-opacity="0" result="BackgroundImageFix"/>
<feColorMatrix in="SourceAlpha" type="matrix" values="0 0 0 0 0 0 0 0 0 0 0 0 0 0 0 0 0 0 127 0" result="hardAlpha"/>
<feOffset/>
<feGaussianBlur stdDeviation="10"/>
<feComposite in2="hardAlpha" operator="out"/>
<feColorMatrix type="matrix" values="0 0 0 0 1 0 0 0 0 1 0 0 0 0 1 0 0 0 0.46 0"/>
<feBlend mode="normal" in2="BackgroundImageFix" result="effect1_dropShadow_763_1061"/>
<feBlend mode="normal" in="SourceGraphic" in2="effect1_dropShadow_763_1061" result="shape"/>
</filter>
</defs>
</svg>
