<svg width="102" height="88" viewBox="0 0 102 88" fill="none" xmlns="http://www.w3.org/2000/svg">
<g filter="url(#filter0_d_763_1055)">
<path d="M61.8874 24.1953L65.9999 32.4203C66.554 33.5578 68.0415 34.6369 69.2957 34.8703L76.7332 36.0953C81.4874 36.8828 82.5957 40.3244 79.1832 43.7661L73.379 49.5703C72.4165 50.5328 71.8624 52.4286 72.1832 53.7994L73.8457 60.9744C75.1582 66.6328 72.1249 68.8494 67.1374 65.8744L60.1665 61.7328C58.9124 60.9744 56.8124 60.9744 55.5582 61.7328L48.5874 65.8744C43.5999 68.8203 40.5665 66.6328 41.879 60.9744L43.5415 53.7994C43.804 52.3994 43.2499 50.5036 42.2874 49.5411L36.4832 43.7369C33.0707 40.3244 34.179 36.8828 38.9332 36.0661L46.3707 34.8411C47.6249 34.6369 49.1124 33.5286 49.6665 32.3911L53.779 24.1661C56.0249 19.7328 59.6415 19.7328 61.8874 24.1953Z" fill="white"/>
</g>
<g filter="url(#filter1_d_763_1055)">
<path d="M40.3335 25.771H22.8335C21.6377 25.771 20.646 24.7793 20.646 23.5835C20.646 22.3877 21.6377 21.396 22.8335 21.396H40.3335C41.5293 21.396 42.521 22.3877 42.521 23.5835C42.521 24.7793 41.5293 25.771 40.3335 25.771Z" fill="white"/>
</g>
<g filter="url(#filter2_d_763_1055)">
<path d="M31.5835 66.604H22.8335C21.6377 66.604 20.646 65.6123 20.646 64.4165C20.646 63.2207 21.6377 62.229 22.8335 62.229H31.5835C32.7793 62.229 33.771 63.2207 33.771 64.4165C33.771 65.6123 32.7793 66.604 31.5835 66.604Z" fill="white"/>
</g>
<g filter="url(#filter3_d_763_1055)">
<path d="M25.7502 46.1875H22.8335C21.6377 46.1875 20.646 45.1958 20.646 44C20.646 42.8042 21.6377 41.8125 22.8335 41.8125H25.7502C26.946 41.8125 27.9377 42.8042 27.9377 44C27.9377 45.1958 26.946 46.1875 25.7502 46.1875Z" fill="white"/>
</g>
<defs>
<filter id="filter0_d_763_1055" x="14.5015" y="0.844727" width="86.6636" height="86.3525" filterUnits="userSpaceOnUse" color-interpolation-filters="sRGB">
<feFlood flood-opacity="0" result="BackgroundImageFix"/>
<feColorMatrix in="SourceAlpha" type="matrix" values="0 0 0 0 0 0 0 0 0 0 0 0 0 0 0 0 0 0 127 0" result="hardAlpha"/>
<feOffset/>
<feGaussianBlur stdDeviation="10"/>
<feComposite in2="hardAlpha" operator="out"/>
<feColorMatrix type="matrix" values="0 0 0 0 1 0 0 0 0 1 0 0 0 0 1 0 0 0 0.46 0"/>
<feBlend mode="normal" in2="BackgroundImageFix" result="effect1_dropShadow_763_1055"/>
<feBlend mode="normal" in="SourceGraphic" in2="effect1_dropShadow_763_1055" result="shape"/>
</filter>
<filter id="filter1_d_763_1055" x="0.645996" y="1.396" width="61.875" height="44.375" filterUnits="userSpaceOnUse" color-interpolation-filters="sRGB">
<feFlood flood-opacity="0" result="BackgroundImageFix"/>
<feColorMatrix in="SourceAlpha" type="matrix" values="0 0 0 0 0 0 0 0 0 0 0 0 0 0 0 0 0 0 127 0" result="hardAlpha"/>
<feOffset/>
<feGaussianBlur stdDeviation="10"/>
<feComposite in2="hardAlpha" operator="out"/>
<feColorMatrix type="matrix" values="0 0 0 0 1 0 0 0 0 1 0 0 0 0 1 0 0 0 0.46 0"/>
<feBlend mode="normal" in2="BackgroundImageFix" result="effect1_dropShadow_763_1055"/>
<feBlend mode="normal" in="SourceGraphic" in2="effect1_dropShadow_763_1055" result="shape"/>
</filter>
<filter id="filter2_d_763_1055" x="0.645996" y="42.229" width="53.125" height="44.375" filterUnits="userSpaceOnUse" color-interpolation-filters="sRGB">
<feFlood flood-opacity="0" result="BackgroundImageFix"/>
<feColorMatrix in="SourceAlpha" type="matrix" values="0 0 0 0 0 0 0 0 0 0 0 0 0 0 0 0 0 0 127 0" result="hardAlpha"/>
<feOffset/>
<feGaussianBlur stdDeviation="10"/>
<feComposite in2="hardAlpha" operator="out"/>
<feColorMatrix type="matrix" values="0 0 0 0 1 0 0 0 0 1 0 0 0 0 1 0 0 0 0.46 0"/>
<feBlend mode="normal" in2="BackgroundImageFix" result="effect1_dropShadow_763_1055"/>
<feBlend mode="normal" in="SourceGraphic" in2="effect1_dropShadow_763_1055" result="shape"/>
</filter>
<filter id="filter3_d_763_1055" x="0.645996" y="21.8125" width="47.2915" height="44.375" filterUnits="userSpaceOnUse" color-interpolation-filters="sRGB">
<feFlood flood-opacity="0" result="BackgroundImageFix"/>
<feColorMatrix in="SourceAlpha" type="matrix" values="0 0 0 0 0 0 0 0 0 0 0 0 0 0 0 0 0 0 127 0" result="hardAlpha"/>
<feOffset/>
<feGaussianBlur stdDeviation="10"/>
<feComposite in2="hardAlpha" operator="out"/>
<feColorMatrix type="matrix" values="0 0 0 0 1 0 0 0 0 1 0 0 0 0 1 0 0 0 0.46 0"/>
<feBlend mode="normal" in2="BackgroundImageFix" result="effect1_dropShadow_763_1055"/>
<feBlend mode="normal" in="SourceGraphic" in2="effect1_dropShadow_763_1055" result="shape"/>
</filter>
</defs>
</svg>
